<?xml version="1.0" encoding="UTF-8" standalone="no"?>
<svg
   viewBox="0 0 630 630"
   version="1.1"
   id="svg7055"
   sodipodi:docname="javascript.svg"
   inkscape:version="1.2 (dc2aedaf03, 2022-05-15)"
   xmlns:inkscape="http://www.inkscape.org/namespaces/inkscape"
   xmlns:sodipodi="http://sodipodi.sourceforge.net/DTD/sodipodi-0.dtd"
   xmlns="http://www.w3.org/2000/svg"
   xmlns:svg="http://www.w3.org/2000/svg">
  <defs
     id="defs7059">
    <inkscape:path-effect
       effect="powerclip"
       id="path-effect8695"
       is_visible="true"
       lpeversion="1"
       inverse="true"
       flatten="false"
       hide_clip="false"
       message="Use fill-rule evenodd on &lt;b&gt;fill and stroke&lt;/b&gt; dialog if no flatten result after convert clip to paths." />
    <clipPath
       clipPathUnits="userSpaceOnUse"
       id="clipPath8691">
      <path
         d="m 423.2,492.19 c 12.69,20.72 29.2,35.95 58.4,35.95 24.53,0 40.2,-12.26 40.2,-29.2 0,-20.3 -16.1,-27.49 -43.1,-39.3 l -14.8,-6.35 c -42.72,-18.2 -71.1,-41 -71.1,-89.2 0,-44.4 33.83,-78.2 86.7,-78.2 37.64,0 64.7,13.1 84.2,47.4 l -46.1,29.6 c -10.15,-18.2 -21.1,-25.37 -38.1,-25.37 -17.34,0 -28.33,11 -28.33,25.37 0,17.76 11,24.95 36.4,35.95 l 14.8,6.34 c 50.3,21.57 78.7,43.56 78.7,93 0,53.3 -41.87,82.5 -98.1,82.5 -54.98,0 -90.5,-26.2 -107.88,-60.54 z m -209.13,5.13 c 9.3,16.5 17.76,30.45 38.1,30.45 19.45,0 31.72,-7.61 31.72,-37.2 v -201.3 h 59.2 v 202.1 c 0,61.3 -35.94,89.2 -88.4,89.2 -47.4,0 -74.85,-24.53 -88.81,-54.075 z"
         id="path8693"
         style="display:none;fill:#ffffff" />
      <path
         id="lpe_path-effect8695"
         style="fill:#ffffff"
         class="powerclip"
         d="M -5,-5 H 635 V 635 H -5 Z m 428.2,497.19 -48.11,27.95 c 17.38,34.34 52.9,60.54 107.88,60.54 56.23,0 98.1,-29.2 98.1,-82.5 0,-49.44 -28.4,-71.43 -78.7,-93 l -14.8,-6.34 c -25.4,-11 -36.4,-18.19 -36.4,-35.95 0,-14.37 10.99,-25.37 28.33,-25.37 17,0 27.95,7.17 38.1,25.37 l 46.1,-29.6 c -19.5,-34.3 -46.56,-47.4 -84.2,-47.4 -52.87,0 -86.7,33.8 -86.7,78.2 0,48.2 28.38,71 71.1,89.2 l 14.8,6.35 c 27,11.81 43.1,19 43.1,39.3 0,16.94 -15.67,29.2 -40.2,29.2 -29.2,0 -45.71,-15.23 -58.4,-35.95 z m -209.13,5.13 -48.19,29.175 c 13.96,29.545 41.41,54.075 88.81,54.075 52.46,0 88.4,-27.9 88.4,-89.2 v -202.1 h -59.2 v 201.3 c 0,29.59 -12.27,37.2 -31.72,37.2 -20.34,0 -28.8,-13.95 -38.1,-30.45 z" />
    </clipPath>
  </defs>
  <sodipodi:namedview
     id="namedview7057"
     pagecolor="#ffffff"
     bordercolor="#000000"
     borderopacity="0.25"
     inkscape:showpageshadow="2"
     inkscape:pageopacity="0.0"
     inkscape:pagecheckerboard="0"
     inkscape:deskcolor="#d1d1d1"
     showgrid="false"
     inkscape:zoom="1.2412698"
     inkscape:cx="317.01407"
     inkscape:cy="315"
     inkscape:window-width="1920"
     inkscape:window-height="1011"
     inkscape:window-x="0"
     inkscape:window-y="0"
     inkscape:window-maximized="1"
     inkscape:current-layer="svg7055" />
  <rect
     width="630"
     height="630"
     fill="#f7df1e"
     id="rect7051"
     style="fill:#000000"
     clip-path="url(#clipPath8691)"
     inkscape:path-effect="#path-effect8695"
     d="M 0,0 H 630 V 630 H 0 Z" />
</svg>
