<?xml version="1.0" encoding="UTF-8" standalone="no"?>
<!-- Generated by IcoMoon.io -->

<svg
   version="1.1"
   width="19"
   height="17.997999"
   viewBox="0 0 19 17.997999"
   id="svg11"
   sodipodi:docname="db.svg"
   inkscape:version="1.1.1 (3bf5ae0, 2021-09-20)"
   xmlns:inkscape="http://www.inkscape.org/namespaces/inkscape"
   xmlns:sodipodi="http://sodipodi.sourceforge.net/DTD/sodipodi-0.dtd"
   xmlns="http://www.w3.org/2000/svg"
   xmlns:svg="http://www.w3.org/2000/svg">
  <defs
     id="defs15" />
  <sodipodi:namedview
     id="namedview13"
     pagecolor="#ffffff"
     bordercolor="#666666"
     borderopacity="1.0"
     inkscape:pageshadow="2"
     inkscape:pageopacity="0.0"
     inkscape:pagecheckerboard="0"
     showgrid="false"
     inkscape:zoom="10.0875"
     inkscape:cx="48.723668"
     inkscape:cy="19.975217"
     inkscape:window-width="1848"
     inkscape:window-height="1016"
     inkscape:window-x="72"
     inkscape:window-y="27"
     inkscape:window-maximized="1"
     inkscape:current-layer="svg11" />
  <path
     fill="#000000"
     d="M 18.067,1.608 C 17.57,1.282 16.874,0.993 15.998,0.75 14.256,0.266 11.948,0 9.5,0 7.052,0 4.744,0.267 3.002,0.75 2.125,0.993 1.429,1.282 0.933,1.608 0.314,2.015 0,2.482 0,2.999 v 12 c 0,0.517 0.314,0.985 0.933,1.391 0.497,0.326 1.193,0.615 2.069,0.858 1.742,0.484 4.05,0.75 6.498,0.75 2.448,0 4.756,-0.267 6.498,-0.751 0.877,-0.243 1.573,-0.532 2.069,-0.858 C 18.686,15.983 19,15.515 19,14.998 v -12 C 19,2.481 18.686,2.013 18.067,1.607 Z M 3.27,1.713 C 4.928,1.253 7.14,0.999 9.5,0.999 c 2.36,0 4.573,0.254 6.23,0.714 C 17.525,2.212 18,2.772 18,2.999 18,3.226 17.526,3.786 15.73,4.285 14.072,4.745 11.86,4.999 9.5,4.999 7.14,4.999 4.927,4.745 3.27,4.285 1.475,3.786 1,3.226 1,2.999 1,2.772 1.474,2.212 3.27,1.713 Z m 12.46,14.572 c -1.658,0.46 -3.87,0.714 -6.23,0.714 -2.36,0 -4.573,-0.254 -6.23,-0.714 C 1.475,15.786 1,15.226 1,14.999 v -2.566 c 0.492,0.309 1.164,0.583 2.002,0.816 1.742,0.484 4.05,0.75 6.498,0.75 2.448,0 4.756,-0.267 6.498,-0.751 0.838,-0.233 1.511,-0.507 2.002,-0.816 v 2.566 c 0,0.227 -0.474,0.787 -2.27,1.286 z m 0,-4 c -1.658,0.46 -3.87,0.714 -6.23,0.714 -2.36,0 -4.573,-0.254 -6.23,-0.714 C 1.475,11.786 1,11.226 1,10.999 V 8.433 c 0.492,0.309 1.164,0.583 2.002,0.816 1.742,0.484 4.05,0.75 6.498,0.75 2.448,0 4.756,-0.267 6.498,-0.75 C 16.836,9.016 17.509,8.742 18,8.433 v 2.566 c 0,0.227 -0.474,0.787 -2.27,1.286 z m 0,-4 C 14.072,8.745 11.86,8.999 9.5,8.999 7.14,8.999 4.927,8.745 3.27,8.285 1.475,7.786 1,7.226 1,6.999 V 4.433 c 0.492,0.309 1.164,0.583 2.002,0.816 1.742,0.484 4.05,0.75 6.498,0.75 2.448,0 4.756,-0.267 6.498,-0.75 C 16.836,5.016 17.509,4.742 18,4.433 v 2.566 c 0,0.227 -0.474,0.787 -2.27,1.286 z"
     id="path9" />
</svg>
